<!-- Generated by IcoMoon.io -->
<svg version="1.1" xmlns="http://www.w3.org/2000/svg" width="32" height="32" viewBox="0 0 32 32">
<title>xmark</title>
<path d="M7.815 24.745c0.386 0.375 1.026 0.375 1.401 0l7.059-7.059 7.059 7.059c0.375 0.375 1.026 0.386 1.401 0s0.375-1.015 0-1.39l-7.059-7.070 7.059-7.059c0.375-0.375 0.386-1.015 0-1.39-0.386-0.386-1.026-0.386-1.401 0l-7.059 7.059-7.059-7.059c-0.375-0.386-1.026-0.397-1.401 0-0.375 0.386-0.375 1.015 0 1.39l7.059 7.059-7.059 7.070c-0.375 0.375-0.386 1.015 0 1.39z" fill="#FF3B30"></path>
</svg>
