<!-- Generated by IcoMoon.io -->
<svg version="1.1" xmlns="http://www.w3.org/2000/svg" width="32" height="32" viewBox="0 0 32 32">
<title>moon-fill</title>
<path d="M21.768 19.485c-5.967 0-9.783-3.739-9.783-9.717 0-1.235 0.298-3 0.695-3.915 0.099-0.254 0.121-0.408 0.121-0.518 0-0.298-0.221-0.629-0.651-0.629-0.121 0-0.386 0.033-0.629 0.121-4.081 1.632-6.816 6.022-6.816 10.643 0 6.485 4.941 11.118 11.404 11.118 4.754 0 8.868-2.879 10.235-6.474 0.099-0.254 0.121-0.518 0.121-0.618 0-0.408-0.342-0.684-0.651-0.684-0.143 0-0.265 0.033-0.474 0.099-0.849 0.276-2.217 0.573-3.574 0.573z" fill="#888888"></path>
</svg>
