<!-- Generated by IcoMoon.io -->
<svg version="1.1" xmlns="http://www.w3.org/2000/svg" width="32" height="32" viewBox="0 0 32 32">
<title>sun-max-fill</title>
<path d="M15.688 21.357c3.066 0 5.614-2.548 5.614-5.625 0-3.088-2.548-5.636-5.614-5.636s-5.614 2.548-5.614 5.636c0 3.077 2.548 5.625 5.614 5.625zM15.699 8.055c0.518 0 0.949-0.43 0.949-0.96v-2.371c0-0.529-0.43-0.96-0.949-0.96-0.529 0-0.96 0.43-0.96 0.96v2.371c0 0.529 0.43 0.96 0.96 0.96zM21.103 10.316c0.375 0.364 0.982 0.375 1.357 0l1.687-1.687c0.364-0.364 0.364-0.982 0-1.357-0.364-0.364-0.971-0.364-1.346 0l-1.699 1.699c-0.364 0.375-0.364 0.982 0 1.346zM23.342 15.732c0 0.518 0.441 0.949 0.96 0.949h2.371c0.518 0 0.949-0.43 0.949-0.949s-0.43-0.96-0.949-0.96h-2.371c-0.518 0-0.96 0.441-0.96 0.96zM21.103 21.147c-0.364 0.375-0.364 0.982 0 1.346l1.699 1.71c0.375 0.353 0.982 0.342 1.346-0.011 0.364-0.375 0.364-0.982 0-1.346l-1.698-1.698c-0.364-0.353-0.971-0.353-1.346 0zM15.699 23.408c-0.529 0-0.96 0.43-0.96 0.949v2.382c0 0.518 0.43 0.949 0.96 0.949 0.518 0 0.949-0.43 0.949-0.949v-2.382c0-0.518-0.43-0.949-0.949-0.949zM10.283 21.147c-0.375-0.353-0.993-0.353-1.357 0l-1.688 1.687c-0.364 0.364-0.364 0.971-0.011 1.346 0.364 0.353 0.982 0.364 1.357 0.011l1.688-1.699c0.364-0.364 0.364-0.971 0.011-1.346zM8.044 15.732c0-0.518-0.441-0.96-0.96-0.96h-2.371c-0.518 0-0.949 0.441-0.949 0.96s0.43 0.949 0.949 0.949h2.371c0.518 0 0.96-0.43 0.96-0.949zM10.272 10.316c0.364-0.353 0.364-0.982 0.011-1.346l-1.688-1.699c-0.364-0.353-0.982-0.364-1.346 0-0.364 0.375-0.364 0.993-0.011 1.346l1.687 1.698c0.364 0.364 0.971 0.364 1.346 0z" fill="#505a50"></path>
</svg>
